%TF.GenerationSoftware,Altium Limited,Altium Designer,24.5.1 (21)*%
G04 Layer_Color=65535*
%FSLAX45Y45*%
%MOMM*%
%TF.SameCoordinates,B243DE45-8CDA-4261-9277-E6BC4981C879*%
%TF.FilePolarity,Positive*%
%TF.FileFunction,Legend,Top*%
%TF.Part,Single*%
G01*
G75*
%TA.AperFunction,NonConductor*%
%ADD40C,0.10000*%
%ADD41C,0.25000*%
%ADD42C,0.20000*%
%ADD43C,0.12700*%
%ADD44C,0.15000*%
D40*
X13775000Y6710000D02*
G03*
X13775000Y6710000I-5000J0D01*
G01*
X16520000Y9835000D02*
G03*
X16520000Y9825000I0J-5000D01*
G01*
D02*
G03*
X16520000Y9835000I0J5000D01*
G01*
X16414999Y8274400D02*
G03*
X16414999Y8264400I0J-5000D01*
G01*
D02*
G03*
X16414999Y8274400I0J5000D01*
G01*
X13614999Y9065000D02*
X13875000D01*
X13614999Y8775000D02*
X13860001D01*
D41*
X13532500Y7585999D02*
G03*
X13532500Y7585999I-12500J0D01*
G01*
X15487500Y9290000D02*
G03*
X15487500Y9290000I-12500J0D01*
G01*
D42*
X15189999Y9280000D02*
G03*
X15189999Y9280000I-10000J0D01*
G01*
X13495000Y9020000D02*
G03*
X13495000Y9000000I0J-10000D01*
G01*
D02*
G03*
X13495000Y9020000I0J10000D01*
G01*
X13964999Y8005000D02*
G03*
X13964999Y8005000I-10000J0D01*
G01*
X13770000Y6750000D02*
X13839500D01*
X14340500D02*
X14410001D01*
X13770000Y7590000D02*
X13839500D01*
X14340500D02*
X14410001D01*
X13770000Y6750000D02*
Y6820500D01*
Y7519500D02*
Y7590000D01*
X14410001Y6750000D02*
Y6820500D01*
Y7519500D02*
Y7590000D01*
X13385001Y7634499D02*
X13655000D01*
Y8725499D01*
X13385001D02*
X13655000D01*
X13385001Y7634499D02*
Y8725499D01*
X14050500Y9705000D02*
Y9857500D01*
X15539999Y9280000D02*
X15800000D01*
Y9180000D02*
Y9280000D01*
X15539999Y8820000D02*
X15800000D01*
Y8920000D01*
X14180000Y9850000D02*
X14300000D01*
X13780000Y8130000D02*
X13900000D01*
X16575000Y6364400D02*
X17150000D01*
Y8164400D01*
X16575000D02*
X17150000D01*
X15480000Y9810000D02*
X15600000D01*
X14210001Y9055000D02*
X14270000D01*
Y8765000D02*
Y9055000D01*
X14210001Y8765000D02*
X14270000D01*
X14210001D02*
Y9055000D01*
X14055000Y9070000D02*
X14175000D01*
D43*
X14413000Y9605000D02*
Y9755000D01*
X15307001Y9605000D02*
Y9755000D01*
X14413000Y10140000D02*
X15307001D01*
X14413000Y10005000D02*
Y10140000D01*
X15307001Y10005000D02*
Y10140000D01*
D44*
X13975000Y8095000D02*
Y8195000D01*
X14055000D01*
X14275000Y8095000D02*
Y8195000D01*
X14195000D02*
X14275000D01*
%TF.MD5,3cf645822cf767d32ca3bda1d83cf4ab*%
M02*
