%TF.GenerationSoftware,Altium Limited,Altium Designer,24.5.1 (21)*%
G04 Layer_Color=0*
%FSLAX45Y45*%
%MOMM*%
%TF.SameCoordinates,7110B0B7-CB38-4A87-9B7B-E9742E85A3CA*%
%TF.FilePolarity,Positive*%
%TF.FileFunction,Plated,1,2,PTH,Drill*%
%TF.Part,Single*%
G01*
G75*
%TA.AperFunction,ComponentDrill*%
%ADD62C,1.02000*%
%ADD63C,1.10000*%
%ADD64O,0.65000X1.75000*%
%ADD65O,0.65000X1.45000*%
%TA.AperFunction,ViaDrill,NotFilled*%
%ADD66C,0.30000*%
D62*
X13520000Y8560999D02*
D03*
Y8306999D02*
D03*
Y7798999D02*
D03*
Y8052999D02*
D03*
D63*
X14107001Y8480000D02*
D03*
X13853000D02*
D03*
D64*
X14428000Y9465000D02*
D03*
X15292000D02*
D03*
D65*
X14428000Y9880000D02*
D03*
X15292000D02*
D03*
D66*
X14510001Y9290000D02*
D03*
X14439999Y9160000D02*
D03*
X15680000Y9900000D02*
D03*
X15670000Y9440000D02*
D03*
X15970000Y8390000D02*
D03*
X13770000Y7890000D02*
D03*
X15060001Y8900000D02*
D03*
Y9040000D02*
D03*
X14100000Y9950000D02*
D03*
X14089999Y9770000D02*
D03*
X13430000Y9490000D02*
D03*
X13500000Y8880000D02*
D03*
X16250000Y9620000D02*
D03*
X16170000Y9530000D02*
D03*
X14954999Y9534349D02*
D03*
X14825000Y9530743D02*
D03*
X14470000Y7550000D02*
D03*
X13900000Y7740000D02*
D03*
X15689999Y8290000D02*
D03*
X15839999D02*
D03*
X14989999Y8560000D02*
D03*
X15000000Y7810000D02*
D03*
X14810001Y7730000D02*
D03*
X15239999Y9290000D02*
D03*
X14620000D02*
D03*
X14639999Y9160000D02*
D03*
X15100000Y9290000D02*
D03*
X13789999Y9510000D02*
D03*
X13539999Y9630000D02*
D03*
X14120000D02*
D03*
X15039999Y9160000D02*
D03*
X16420000Y8370000D02*
D03*
X13900000Y6910000D02*
D03*
X14280000Y6660000D02*
D03*
X14380000Y8260000D02*
D03*
X16430000Y8730000D02*
D03*
X16400000Y7975000D02*
D03*
X15900000Y7425000D02*
D03*
X15625000Y7150000D02*
D03*
X15350000Y7425000D02*
D03*
X15625000Y7700000D02*
D03*
X16400000Y6550000D02*
D03*
%TF.MD5,ef0744a6f5fc1bb8d00234768f19aea5*%
M02*
