%TF.GenerationSoftware,Altium Limited,Altium Designer,24.5.1 (21)*%
G04 Layer_Color=16711935*
%FSLAX45Y45*%
%MOMM*%
%TF.SameCoordinates,E68DD472-6E3C-4E28-875F-C7B5402E02A7*%
%TF.FilePolarity,Negative*%
%TF.FileFunction,Soldermask,Bot*%
%TF.Part,Single*%
G01*
G75*
%TA.AperFunction,WasherPad*%
%ADD65C,0.20000*%
%TA.AperFunction,ComponentPad*%
%ADD66C,1.72000*%
G04:AMPARAMS|DCode=67|XSize=1.72mm|YSize=1.72mm|CornerRadius=0.48mm|HoleSize=0mm|Usage=FLASHONLY|Rotation=90.000|XOffset=0mm|YOffset=0mm|HoleType=Round|Shape=RoundedRectangle|*
%AMROUNDEDRECTD67*
21,1,1.72000,0.76000,0,0,90.0*
21,1,0.76000,1.72000,0,0,90.0*
1,1,0.96000,0.38000,0.38000*
1,1,0.96000,0.38000,-0.38000*
1,1,0.96000,-0.38000,-0.38000*
1,1,0.96000,-0.38000,0.38000*
%
%ADD67ROUNDEDRECTD67*%
G04:AMPARAMS|DCode=68|XSize=1.8mm|YSize=1.8mm|CornerRadius=0.5mm|HoleSize=0mm|Usage=FLASHONLY|Rotation=180.000|XOffset=0mm|YOffset=0mm|HoleType=Round|Shape=RoundedRectangle|*
%AMROUNDEDRECTD68*
21,1,1.80000,0.80000,0,0,180.0*
21,1,0.80000,1.80000,0,0,180.0*
1,1,1.00000,-0.40000,0.40000*
1,1,1.00000,0.40000,0.40000*
1,1,1.00000,0.40000,-0.40000*
1,1,1.00000,-0.40000,-0.40000*
%
%ADD68ROUNDEDRECTD68*%
%ADD69C,1.80000*%
%ADD70O,1.15000X2.25000*%
%ADD71O,1.15000X1.95000*%
%ADD72C,0.90000*%
%TA.AperFunction,ViaPad*%
%ADD73C,0.90000*%
D65*
X16960001Y9890000D02*
D03*
X16689999Y8920000D02*
D03*
X14520000Y8500000D02*
D03*
X13562752Y6462371D02*
D03*
D66*
X13520000Y8560999D02*
D03*
Y8306999D02*
D03*
Y8052999D02*
D03*
D67*
Y7798999D02*
D03*
D68*
X14107001Y8480000D02*
D03*
D69*
X13853000D02*
D03*
D70*
X14428000Y9465000D02*
D03*
X15292000D02*
D03*
D71*
X14428000Y9880000D02*
D03*
X15292000D02*
D03*
D72*
X14571001Y9515000D02*
D03*
X15149001D02*
D03*
D73*
X14510001Y9290000D02*
D03*
X14439999Y9160000D02*
D03*
X15680000Y9900000D02*
D03*
X15670000Y9440000D02*
D03*
X15970000Y8390000D02*
D03*
X13770000Y7890000D02*
D03*
X15060001Y8900000D02*
D03*
Y9040000D02*
D03*
X14100000Y9950000D02*
D03*
X14089999Y9770000D02*
D03*
X13430000Y9490000D02*
D03*
X13500000Y8880000D02*
D03*
X16250000Y9620000D02*
D03*
X16170000Y9530000D02*
D03*
X14954999Y9534349D02*
D03*
X14825000Y9530743D02*
D03*
X14470000Y7550000D02*
D03*
X13900000Y7740000D02*
D03*
X15689999Y8290000D02*
D03*
X15839999D02*
D03*
X14989999Y8560000D02*
D03*
X15000000Y7810000D02*
D03*
X14810001Y7730000D02*
D03*
X15239999Y9290000D02*
D03*
X14620000D02*
D03*
X14639999Y9160000D02*
D03*
X15100000Y9290000D02*
D03*
X13789999Y9510000D02*
D03*
X13539999Y9630000D02*
D03*
X14120000D02*
D03*
X15039999Y9160000D02*
D03*
X16420000Y8370000D02*
D03*
X13900000Y6910000D02*
D03*
X14280000Y6660000D02*
D03*
X14380000Y8260000D02*
D03*
X16430000Y8730000D02*
D03*
X16400000Y7975000D02*
D03*
X15900000Y7425000D02*
D03*
X15625000Y7150000D02*
D03*
X15350000Y7425000D02*
D03*
X15625000Y7700000D02*
D03*
X16400000Y6550000D02*
D03*
%TF.MD5,94f49de9e8285b48b2add2a8d10d32d7*%
M02*
