%TF.GenerationSoftware,Altium Limited,Altium Designer,24.6.1 (21)*%
G04 Layer_Color=8388736*
%FSLAX45Y45*%
%MOMM*%
%TF.SameCoordinates,C73725EF-E552-4689-BE2B-43CAEE6025B1*%
%TF.FilePolarity,Negative*%
%TF.FileFunction,Soldermask,Top*%
%TF.Part,Single*%
G01*
G75*
%TA.AperFunction,ConnectorPad*%
%ADD45R,0.70000X1.00000*%
%TA.AperFunction,SMDPad,CuDef*%
%ADD46R,1.00000X1.00000*%
%ADD47R,2.20000X1.25000*%
%ADD48R,0.60000X1.15000*%
%ADD49R,4.50000X3.60000*%
%ADD50R,0.90000X1.72500*%
%ADD51R,3.60200X2.71300*%
%TA.AperFunction,ConnectorPad*%
%ADD52R,0.40000X1.25000*%
%ADD53R,0.70000X1.25000*%
%TA.AperFunction,SMDPad,CuDef*%
%ADD54R,1.50000X0.90000*%
%ADD55R,2.00000X0.80000*%
%ADD56R,0.80000X1.10000*%
%ADD57R,1.55000X1.20000*%
%ADD58R,1.10000X0.80000*%
%TA.AperFunction,BGAPad,CuDef*%
%ADD59R,1.10000X1.10000*%
%TA.AperFunction,SMDPad,CuDef*%
%ADD60R,1.10000X1.70000*%
%ADD61R,1.70000X1.10000*%
%ADD62R,1.60000X0.80000*%
%ADD63R,1.10000X1.00000*%
%ADD64R,1.00000X1.00000*%
%ADD65R,1.40000X0.80000*%
%TA.AperFunction,ComponentPad*%
%ADD66C,1.72000*%
G04:AMPARAMS|DCode=67|XSize=1.72mm|YSize=1.72mm|CornerRadius=0.48mm|HoleSize=0mm|Usage=FLASHONLY|Rotation=270.000|XOffset=0mm|YOffset=0mm|HoleType=Round|Shape=RoundedRectangle|*
%AMROUNDEDRECTD67*
21,1,1.72000,0.76000,0,0,270.0*
21,1,0.76000,1.72000,0,0,270.0*
1,1,0.96000,-0.38000,-0.38000*
1,1,0.96000,-0.38000,0.38000*
1,1,0.96000,0.38000,0.38000*
1,1,0.96000,0.38000,-0.38000*
%
%ADD67ROUNDEDRECTD67*%
G04:AMPARAMS|DCode=68|XSize=1.8mm|YSize=1.8mm|CornerRadius=0.5mm|HoleSize=0mm|Usage=FLASHONLY|Rotation=180.000|XOffset=0mm|YOffset=0mm|HoleType=Round|Shape=RoundedRectangle|*
%AMROUNDEDRECTD68*
21,1,1.80000,0.80000,0,0,180.0*
21,1,0.80000,1.80000,0,0,180.0*
1,1,1.00000,-0.40000,0.40000*
1,1,1.00000,0.40000,0.40000*
1,1,1.00000,0.40000,-0.40000*
1,1,1.00000,-0.40000,-0.40000*
%
%ADD68ROUNDEDRECTD68*%
%ADD69C,1.80000*%
%ADD70O,1.15000X2.25000*%
%ADD71O,1.15000X1.95000*%
%ADD72C,0.90000*%
G36*
X15546307Y8869936D02*
X15547594Y8869680D01*
X15548836Y8869259D01*
X15550011Y8868679D01*
X15551100Y8867951D01*
X15552086Y8867086D01*
X15612086Y8807086D01*
X15612950Y8806100D01*
X15613680Y8805011D01*
X15614259Y8803835D01*
X15614680Y8802594D01*
X15614935Y8801308D01*
X15615021Y8800000D01*
Y8740000D01*
X15614935Y8738692D01*
X15614680Y8737406D01*
X15614259Y8736165D01*
X15613680Y8734989D01*
X15612950Y8733899D01*
X15612086Y8732914D01*
X15552086Y8672914D01*
X15551100Y8672049D01*
X15550011Y8671321D01*
X15548836Y8670741D01*
X15547594Y8670320D01*
X15546307Y8670064D01*
X15545000Y8669979D01*
X15345000D01*
X15343692Y8670064D01*
X15342406Y8670320D01*
X15341165Y8670741D01*
X15339989Y8671321D01*
X15338899Y8672049D01*
X15337914Y8672914D01*
X15277914Y8732914D01*
X15277049Y8733899D01*
X15276321Y8734989D01*
X15275742Y8736165D01*
X15275320Y8737406D01*
X15275064Y8738692D01*
X15274979Y8740000D01*
Y8800000D01*
X15275064Y8801308D01*
X15275320Y8802594D01*
X15275742Y8803835D01*
X15276321Y8805011D01*
X15277049Y8806100D01*
X15277914Y8807086D01*
X15337914Y8867086D01*
X15338899Y8867951D01*
X15339989Y8868679D01*
X15341165Y8869259D01*
X15342406Y8869680D01*
X15343692Y8869936D01*
X15345000Y8870021D01*
X15545000D01*
X15546307Y8869936D01*
D02*
G37*
D45*
X17900000Y9600000D02*
D03*
X17800000D02*
D03*
X17700000D02*
D03*
Y9400000D02*
D03*
X17800000D02*
D03*
X17900000D02*
D03*
D46*
X17389999Y9575000D02*
D03*
Y9425000D02*
D03*
X15010001Y8915000D02*
D03*
Y8765000D02*
D03*
X15010001Y8465000D02*
D03*
Y8615000D02*
D03*
X13430000Y9375000D02*
D03*
Y9225000D02*
D03*
X14139999Y9474999D02*
D03*
Y9324999D02*
D03*
X17260001Y9425000D02*
D03*
Y9575000D02*
D03*
X14514999Y9070000D02*
D03*
Y8920000D02*
D03*
D47*
X13550000Y6757500D02*
D03*
Y7202500D02*
D03*
X13160001Y7192500D02*
D03*
Y6747500D02*
D03*
D48*
X13899500Y6783000D02*
D03*
X14026500D02*
D03*
X14153500D02*
D03*
X14280499D02*
D03*
X13899500Y7557000D02*
D03*
X14026500D02*
D03*
X14153500D02*
D03*
X14280499D02*
D03*
D49*
X14089999Y7170000D02*
D03*
D50*
X13980499Y9781200D02*
D03*
X13853500D02*
D03*
X13726500D02*
D03*
X13599500D02*
D03*
Y9238800D02*
D03*
X13726500D02*
D03*
X13853500D02*
D03*
X13980499D02*
D03*
D51*
X13789999Y9510000D02*
D03*
D52*
X14885001Y9407500D02*
D03*
X14685001D02*
D03*
X14735001D02*
D03*
X14785001D02*
D03*
X14835001D02*
D03*
X15035001D02*
D03*
X14985001D02*
D03*
X14935001D02*
D03*
D53*
X14539999D02*
D03*
X14620000D02*
D03*
X15100000D02*
D03*
X15180000D02*
D03*
D54*
X15170000Y8920000D02*
D03*
Y8620000D02*
D03*
D55*
X15195000Y8770000D02*
D03*
D56*
X13845000Y9950000D02*
D03*
X13995000D02*
D03*
X14205000Y9170000D02*
D03*
X14355000D02*
D03*
X14025000Y7850000D02*
D03*
X13875000D02*
D03*
X16275000Y8375000D02*
D03*
X16125000D02*
D03*
D57*
X14239999Y9755000D02*
D03*
Y9945000D02*
D03*
X13839999Y8035000D02*
D03*
Y8225000D02*
D03*
X15539999Y9715000D02*
D03*
Y9905000D02*
D03*
D58*
X14639999Y9065000D02*
D03*
Y8915000D02*
D03*
X15775000Y8550000D02*
D03*
Y8400000D02*
D03*
X15625000Y8550000D02*
D03*
Y8400000D02*
D03*
X17130000Y9575000D02*
D03*
Y9425000D02*
D03*
X14375000Y8000000D02*
D03*
Y8150000D02*
D03*
D59*
X15769000Y7274400D02*
D03*
X15628999D02*
D03*
X15489000D02*
D03*
Y7414400D02*
D03*
Y7554400D02*
D03*
X15628999D02*
D03*
X15769000D02*
D03*
Y7414400D02*
D03*
X15628999D02*
D03*
D60*
X16400999Y6389400D02*
D03*
X16274001D02*
D03*
X16147000D02*
D03*
X16020000D02*
D03*
X15892999D02*
D03*
X15766000D02*
D03*
X15639000D02*
D03*
X15512000D02*
D03*
X15385001D02*
D03*
X15258000D02*
D03*
X15131000D02*
D03*
X15003999D02*
D03*
X14877000D02*
D03*
X14750000D02*
D03*
Y8139400D02*
D03*
X14877000D02*
D03*
X15003999D02*
D03*
X15131000D02*
D03*
X15258000D02*
D03*
X15385001D02*
D03*
X15512000D02*
D03*
X15639000D02*
D03*
X15766000D02*
D03*
X15892999D02*
D03*
X16020000D02*
D03*
X16147000D02*
D03*
X16274001D02*
D03*
X16400999D02*
D03*
D61*
X14625000Y6565900D02*
D03*
Y6692900D02*
D03*
Y6819900D02*
D03*
Y6946900D02*
D03*
Y7073900D02*
D03*
Y7200900D02*
D03*
Y7327900D02*
D03*
Y7454900D02*
D03*
Y7581900D02*
D03*
Y7708900D02*
D03*
Y7835900D02*
D03*
Y7962900D02*
D03*
D62*
X13630000Y9015000D02*
D03*
Y8920000D02*
D03*
Y8825000D02*
D03*
X13860001Y9015000D02*
D03*
Y8920000D02*
D03*
Y8825000D02*
D03*
D63*
X14030000Y8005000D02*
D03*
X14220000D02*
D03*
X14125000Y8245000D02*
D03*
D64*
X16425000Y8500000D02*
D03*
X16275000D02*
D03*
X16425000Y8625000D02*
D03*
X16275000D02*
D03*
X15975000Y8500000D02*
D03*
X16125000D02*
D03*
D65*
X14114999Y9005000D02*
D03*
Y8910000D02*
D03*
Y8815000D02*
D03*
X14364999D02*
D03*
Y8910000D02*
D03*
Y9005000D02*
D03*
D66*
X13520000Y8306999D02*
D03*
Y8052999D02*
D03*
Y7798999D02*
D03*
D67*
Y8560999D02*
D03*
D68*
X14107001Y8480000D02*
D03*
D69*
X13853000D02*
D03*
D70*
X14428000Y9465000D02*
D03*
X15292000D02*
D03*
D71*
X14428000Y9880000D02*
D03*
X15292000D02*
D03*
D72*
X14571001Y9515000D02*
D03*
X15149001D02*
D03*
%TF.MD5,65963b2648fa9602c07b42c5d2235d27*%
M02*
