%TF.GenerationSoftware,Altium Limited,Altium Designer,24.6.1 (21)*%
G04 Layer_Color=65535*
%FSLAX45Y45*%
%MOMM*%
%TF.SameCoordinates,C73725EF-E552-4689-BE2B-43CAEE6025B1*%
%TF.FilePolarity,Positive*%
%TF.FileFunction,Legend,Top*%
%TF.Part,Single*%
G01*
G75*
%TA.AperFunction,NonConductor*%
%ADD40C,0.10000*%
%ADD41C,0.25000*%
%ADD42C,0.20000*%
%ADD43C,0.12700*%
%ADD44C,0.15000*%
D40*
X17900000Y9700000D02*
G03*
X17900000Y9710000I0J5000D01*
G01*
D02*
G03*
X17900000Y9700000I0J-5000D01*
G01*
X13775000Y6710000D02*
G03*
X13775000Y6710000I-5000J0D01*
G01*
X16414999Y8274400D02*
G03*
X16414999Y8264400I0J-5000D01*
G01*
D02*
G03*
X16414999Y8274400I0J5000D01*
G01*
X13403500Y6780000D02*
Y7175000D01*
X13696500Y6785000D02*
Y7180000D01*
X13306500Y6775000D02*
Y7170000D01*
X13013499Y6770000D02*
Y7165000D01*
X13614999Y9065000D02*
X13875000D01*
X13614999Y8775000D02*
X13860001D01*
D41*
X13532500Y8773999D02*
G03*
X13532500Y8773999I-12500J0D01*
G01*
X15167500Y9010000D02*
G03*
X15167500Y9010000I-12500J0D01*
G01*
D42*
X15189999Y9280000D02*
G03*
X15189999Y9280000I-10000J0D01*
G01*
X13495000Y9020000D02*
G03*
X13495000Y9000000I0J-10000D01*
G01*
D02*
G03*
X13495000Y9020000I0J10000D01*
G01*
X13964999Y8005000D02*
G03*
X13964999Y8005000I-10000J0D01*
G01*
X13655000Y7634499D02*
Y8725499D01*
X13385001Y7634499D02*
X13655000D01*
X13385001D02*
Y8725499D01*
X13655000D01*
X13770000Y6750000D02*
X13839500D01*
X14340500D02*
X14410001D01*
X13770000Y7590000D02*
X13839500D01*
X14340500D02*
X14410001D01*
X13770000Y6750000D02*
Y6820500D01*
Y7519500D02*
Y7590000D01*
X14410001Y6750000D02*
Y6820500D01*
Y7519500D02*
Y7590000D01*
X14050500Y9705000D02*
Y9857500D01*
X15220000Y9000000D02*
X15480000D01*
Y8900000D02*
Y9000000D01*
X15220000Y8540000D02*
X15480000D01*
Y8640000D01*
X14180000Y9850000D02*
X14300000D01*
X13780000Y8130000D02*
X13900000D01*
X16575000Y6364400D02*
X17150000D01*
Y8164400D01*
X16575000D02*
X17150000D01*
X15480000Y9810000D02*
X15600000D01*
X14210001Y9055000D02*
X14270000D01*
Y8765000D02*
Y9055000D01*
X14210001Y8765000D02*
X14270000D01*
X14210001D02*
Y9055000D01*
X14055000Y9070000D02*
X14175000D01*
D43*
X14413000Y9605000D02*
Y9755000D01*
X15307001Y9605000D02*
Y9755000D01*
X14413000Y10140000D02*
X15307001D01*
X14413000Y10005000D02*
Y10140000D01*
X15307001Y10005000D02*
Y10140000D01*
D44*
X13975000Y8095000D02*
Y8195000D01*
X14055000D01*
X14275000Y8095000D02*
Y8195000D01*
X14195000D02*
X14275000D01*
X14053355Y8699987D02*
Y8620013D01*
X14093343D01*
X14106671Y8633342D01*
Y8646671D01*
X14093343Y8660000D01*
X14053355D01*
X14093343D01*
X14106671Y8673329D01*
Y8686658D01*
X14093343Y8699987D01*
X14053355D01*
X14133328Y8660000D02*
X14186646D01*
X13793355Y8699987D02*
Y8620013D01*
X13833342D01*
X13846671Y8633342D01*
Y8646671D01*
X13833342Y8660000D01*
X13793355D01*
X13833342D01*
X13846671Y8673329D01*
Y8686658D01*
X13833342Y8699987D01*
X13793355D01*
X13873329Y8660000D02*
X13926645D01*
X13899986Y8686658D02*
Y8633342D01*
X13013380Y7449987D02*
Y7370013D01*
X13053368D01*
X13066698Y7383342D01*
Y7396671D01*
X13053368Y7410000D01*
X13013380D01*
X13053368D01*
X13066698Y7423329D01*
Y7436658D01*
X13053368Y7449987D01*
X13013380D01*
X13133342D02*
X13106683D01*
X13093355Y7436658D01*
Y7383342D01*
X13106683Y7370013D01*
X13133342D01*
X13146671Y7383342D01*
Y7436658D01*
X13133342Y7449987D01*
X13213316D02*
X13186658D01*
X13173329Y7436658D01*
Y7383342D01*
X13186658Y7370013D01*
X13213316D01*
X13226645Y7383342D01*
Y7436658D01*
X13213316Y7449987D01*
X13253304D02*
X13306619D01*
X13279962D01*
Y7370013D01*
X13453368D02*
Y7449987D01*
X13493355D01*
X13506683Y7436658D01*
Y7410000D01*
X13493355Y7396671D01*
X13453368D01*
X13480026D02*
X13506683Y7370013D01*
X13586658Y7436658D02*
X13573329Y7449987D01*
X13546671D01*
X13533342Y7436658D01*
Y7423329D01*
X13546671Y7410000D01*
X13573329D01*
X13586658Y7396671D01*
Y7383342D01*
X13573329Y7370013D01*
X13546671D01*
X13533342Y7383342D01*
X13613316Y7449987D02*
X13666632D01*
X13639973D01*
Y7370013D01*
%TF.MD5,e1772d968a96e0512567546ba8b8cd4f*%
M02*
