%TF.GenerationSoftware,Altium Limited,Altium Designer,24.5.1 (21)*%
G04 Layer_Color=8388736*
%FSLAX45Y45*%
%MOMM*%
%TF.SameCoordinates,B243DE45-8CDA-4261-9277-E6BC4981C879*%
%TF.FilePolarity,Negative*%
%TF.FileFunction,Soldermask,Top*%
%TF.Part,Single*%
G01*
G75*
%TA.AperFunction,SMDPad,CuDef*%
%ADD45R,0.60000X1.15000*%
%ADD46R,4.50000X3.60000*%
%ADD47R,0.90000X1.72500*%
%ADD48R,3.60200X2.71300*%
%TA.AperFunction,ConnectorPad*%
%ADD49R,0.40000X1.25000*%
%ADD50R,0.70000X1.25000*%
%TA.AperFunction,SMDPad,CuDef*%
%ADD51R,1.00000X1.00000*%
%ADD52R,1.50000X0.90000*%
%ADD53R,2.00000X0.80000*%
%ADD54R,0.80000X1.10000*%
%ADD55R,1.55000X1.20000*%
%ADD56R,1.00000X1.00000*%
%ADD57R,1.10000X0.80000*%
%ADD58R,0.70000X1.00000*%
%TA.AperFunction,BGAPad,CuDef*%
%ADD59R,1.10000X1.10000*%
%TA.AperFunction,ConnectorPad*%
%ADD60R,1.10000X1.70000*%
%ADD61R,1.70000X1.10000*%
%TA.AperFunction,SMDPad,CuDef*%
%ADD62R,1.60000X0.80000*%
%ADD63R,1.10000X1.00000*%
%ADD64R,1.40000X0.80000*%
%TA.AperFunction,ComponentPad*%
%ADD65C,1.72000*%
G04:AMPARAMS|DCode=66|XSize=1.72mm|YSize=1.72mm|CornerRadius=0.48mm|HoleSize=0mm|Usage=FLASHONLY|Rotation=90.000|XOffset=0mm|YOffset=0mm|HoleType=Round|Shape=RoundedRectangle|*
%AMROUNDEDRECTD66*
21,1,1.72000,0.76000,0,0,90.0*
21,1,0.76000,1.72000,0,0,90.0*
1,1,0.96000,0.38000,0.38000*
1,1,0.96000,0.38000,-0.38000*
1,1,0.96000,-0.38000,-0.38000*
1,1,0.96000,-0.38000,0.38000*
%
%ADD66ROUNDEDRECTD66*%
G04:AMPARAMS|DCode=67|XSize=1.8mm|YSize=1.8mm|CornerRadius=0.5mm|HoleSize=0mm|Usage=FLASHONLY|Rotation=180.000|XOffset=0mm|YOffset=0mm|HoleType=Round|Shape=RoundedRectangle|*
%AMROUNDEDRECTD67*
21,1,1.80000,0.80000,0,0,180.0*
21,1,0.80000,1.80000,0,0,180.0*
1,1,1.00000,-0.40000,0.40000*
1,1,1.00000,0.40000,0.40000*
1,1,1.00000,0.40000,-0.40000*
1,1,1.00000,-0.40000,-0.40000*
%
%ADD67ROUNDEDRECTD67*%
%ADD68C,1.80000*%
%ADD69O,1.15000X2.25000*%
%ADD70O,1.15000X1.95000*%
%ADD71C,0.90000*%
G36*
X15866309Y9149935D02*
X15867593Y9149680D01*
X15868835Y9149259D01*
X15870010Y9148679D01*
X15871101Y9147950D01*
X15872086Y9147086D01*
X15932086Y9087086D01*
X15932951Y9086100D01*
X15933679Y9085011D01*
X15934259Y9083835D01*
X15934680Y9082593D01*
X15934937Y9081308D01*
X15935020Y9080000D01*
Y9020000D01*
X15934937Y9018692D01*
X15934680Y9017406D01*
X15934259Y9016165D01*
X15933679Y9014989D01*
X15932951Y9013899D01*
X15932086Y9012914D01*
X15872086Y8952914D01*
X15871101Y8952049D01*
X15870010Y8951321D01*
X15868835Y8950741D01*
X15867593Y8950320D01*
X15866309Y8950064D01*
X15864999Y8949979D01*
X15664999D01*
X15663692Y8950064D01*
X15662407Y8950320D01*
X15661165Y8950741D01*
X15659988Y8951321D01*
X15658900Y8952049D01*
X15657915Y8952914D01*
X15597914Y9012914D01*
X15597050Y9013899D01*
X15596321Y9014989D01*
X15595741Y9016165D01*
X15595320Y9017406D01*
X15595065Y9018692D01*
X15594978Y9020000D01*
Y9080000D01*
X15595065Y9081308D01*
X15595320Y9082593D01*
X15595741Y9083835D01*
X15596321Y9085011D01*
X15597050Y9086100D01*
X15597914Y9087086D01*
X15657915Y9147086D01*
X15658900Y9147950D01*
X15659988Y9148679D01*
X15661165Y9149259D01*
X15662407Y9149680D01*
X15663692Y9149935D01*
X15664999Y9150021D01*
X15864999D01*
X15866309Y9149935D01*
D02*
G37*
D45*
X13899500Y6783000D02*
D03*
X14026500D02*
D03*
X14153500D02*
D03*
X14280499D02*
D03*
X13899500Y7557000D02*
D03*
X14026500D02*
D03*
X14153500D02*
D03*
X14280499D02*
D03*
D46*
X14089999Y7170000D02*
D03*
D47*
X13980499Y9781200D02*
D03*
X13853500D02*
D03*
X13726500D02*
D03*
X13599500D02*
D03*
Y9238800D02*
D03*
X13726500D02*
D03*
X13853500D02*
D03*
X13980499D02*
D03*
D48*
X13789999Y9510000D02*
D03*
D49*
X14885001Y9407500D02*
D03*
X14685001D02*
D03*
X14735001D02*
D03*
X14785001D02*
D03*
X14835001D02*
D03*
X15035001D02*
D03*
X14985001D02*
D03*
X14935001D02*
D03*
D50*
X14539999D02*
D03*
X14620000D02*
D03*
X15100000D02*
D03*
X15180000D02*
D03*
D51*
X15171300Y9048500D02*
D03*
X15321300D02*
D03*
X15171300Y8898500D02*
D03*
X15321300D02*
D03*
X16425000Y8500000D02*
D03*
X16275000D02*
D03*
X16425000Y8625000D02*
D03*
X16275000D02*
D03*
X15975000Y8500000D02*
D03*
X16125000D02*
D03*
D52*
X15489999Y9200000D02*
D03*
Y8900000D02*
D03*
D53*
X15514999Y9050000D02*
D03*
D54*
X13845000Y9950000D02*
D03*
X13995000D02*
D03*
X14205000Y9170000D02*
D03*
X14355000D02*
D03*
X14025000Y7850000D02*
D03*
X13875000D02*
D03*
X16275000Y8375000D02*
D03*
X16125000D02*
D03*
D55*
X14239999Y9755000D02*
D03*
Y9945000D02*
D03*
X13839999Y8035000D02*
D03*
Y8225000D02*
D03*
X15539999Y9715000D02*
D03*
Y9905000D02*
D03*
D56*
X13430000Y9375000D02*
D03*
Y9225000D02*
D03*
X14139999Y9474999D02*
D03*
Y9324999D02*
D03*
X16050000Y9545000D02*
D03*
Y9695000D02*
D03*
X15930000Y9545000D02*
D03*
Y9695000D02*
D03*
X14514999Y9070000D02*
D03*
Y8920000D02*
D03*
D57*
X14639999Y9065000D02*
D03*
Y8915000D02*
D03*
X15775000Y8550000D02*
D03*
Y8400000D02*
D03*
X15625000Y8550000D02*
D03*
Y8400000D02*
D03*
X15810001Y9695000D02*
D03*
Y9545000D02*
D03*
X14375000Y8000000D02*
D03*
Y8150000D02*
D03*
D58*
X16520000Y9525000D02*
D03*
X16420000D02*
D03*
X16320000D02*
D03*
Y9725000D02*
D03*
X16420000D02*
D03*
X16520000D02*
D03*
D59*
X15769000Y7274400D02*
D03*
X15628999D02*
D03*
X15489000D02*
D03*
Y7414400D02*
D03*
Y7554400D02*
D03*
X15628999D02*
D03*
X15769000D02*
D03*
Y7414400D02*
D03*
X15628999D02*
D03*
D60*
X16400999Y6389400D02*
D03*
X16274001D02*
D03*
X16147000D02*
D03*
X16020000D02*
D03*
X15892999D02*
D03*
X15766000D02*
D03*
X15639000D02*
D03*
X15512000D02*
D03*
X15385001D02*
D03*
X15258000D02*
D03*
X15131000D02*
D03*
X15003999D02*
D03*
X14877000D02*
D03*
X14750000D02*
D03*
Y8139400D02*
D03*
X14877000D02*
D03*
X15003999D02*
D03*
X15131000D02*
D03*
X15258000D02*
D03*
X15385001D02*
D03*
X15512000D02*
D03*
X15639000D02*
D03*
X15766000D02*
D03*
X15892999D02*
D03*
X16020000D02*
D03*
X16147000D02*
D03*
X16274001D02*
D03*
X16400999D02*
D03*
D61*
X14625000Y6565900D02*
D03*
Y6692900D02*
D03*
Y6819900D02*
D03*
Y6946900D02*
D03*
Y7073900D02*
D03*
Y7200900D02*
D03*
Y7327900D02*
D03*
Y7454900D02*
D03*
Y7581900D02*
D03*
Y7708900D02*
D03*
Y7835900D02*
D03*
Y7962900D02*
D03*
D62*
X13630000Y9015000D02*
D03*
Y8920000D02*
D03*
Y8825000D02*
D03*
X13860001Y9015000D02*
D03*
Y8920000D02*
D03*
Y8825000D02*
D03*
D63*
X14030000Y8005000D02*
D03*
X14220000D02*
D03*
X14125000Y8245000D02*
D03*
D64*
X14114999Y9005000D02*
D03*
Y8910000D02*
D03*
Y8815000D02*
D03*
X14364999D02*
D03*
Y8910000D02*
D03*
Y9005000D02*
D03*
D65*
X13520000Y8560999D02*
D03*
Y8306999D02*
D03*
Y8052999D02*
D03*
D66*
Y7798999D02*
D03*
D67*
X14107001Y8480000D02*
D03*
D68*
X13853000D02*
D03*
D69*
X14428000Y9465000D02*
D03*
X15292000D02*
D03*
D70*
X14428000Y9880000D02*
D03*
X15292000D02*
D03*
D71*
X14571001Y9515000D02*
D03*
X15149001D02*
D03*
%TF.MD5,693a3a840b58ef771e4ed8afd7baff9d*%
M02*
